<svg width="100" height="98" viewBox="0 0 100 98" fill="none" xmlns="http://www.w3.org/2000/svg">
<rect width="100" height="98" rx="49" fill="white"/>
<path d="M37.56 48.09H31.906V41.842H28.848V57H31.906V50.84H37.56V57H40.618V41.842H37.56V48.09ZM48.5255 57.264C51.4515 57.264 54.0475 55.108 54.0475 51.874C54.0475 48.618 51.4515 46.462 48.5255 46.462C45.5995 46.462 43.0035 48.618 43.0035 51.874C43.0035 55.108 45.5995 57.264 48.5255 57.264ZM48.5255 54.58C47.0955 54.58 45.9295 53.458 45.9295 51.874C45.9295 50.268 47.0955 49.146 48.5255 49.146C49.9555 49.146 51.1215 50.268 51.1215 51.874C51.1215 53.458 49.9555 54.58 48.5255 54.58ZM59.9472 57.264C62.0592 57.264 64.2592 56.142 64.2592 53.986C64.2592 53.15 63.9512 51.61 61.4872 50.95L59.7932 50.51C59.2212 50.356 58.7812 50.114 58.7812 49.63C58.7812 49.102 59.3092 48.728 59.9692 48.728C60.6512 48.728 61.2232 49.102 61.2232 49.806H63.9732C63.9952 47.364 61.7952 46.462 59.9252 46.462C57.5492 46.462 55.8992 47.958 55.8992 49.542C55.8992 50.62 56.2512 52.094 58.8912 52.798L60.2552 53.128C61.0252 53.326 61.3772 53.546 61.3772 53.986C61.3772 54.58 60.7392 54.998 59.9032 54.998C58.8912 54.998 58.3852 54.36 58.3852 53.766H55.6792C55.7012 56.032 57.7912 57.264 59.9472 57.264ZM70.3299 46.726V42.986H67.4479V46.726H65.5779V48.97H67.4479V57H70.3299V48.97H72.5079V46.726H70.3299Z" fill="#282856"/>
</svg>
